<mxfile host="app.diagrams.net" agent="Mozilla/5.0 (Windows NT 10.0; Win64; x64; rv:136.0) Gecko/20100101 Firefox/136.0" version="26.1.3">
  <diagram name="Страница — 1" id="9L2GJewI2N8roZVwL_Ha">
    <mxGraphModel dx="1434" dy="754" grid="1" gridSize="10" guides="1" tooltips="1" connect="1" arrows="1" fold="1" page="1" pageScale="1" pageWidth="827" pageHeight="1169" math="0" shadow="0">
      <root>
        <mxCell id="0" />
        <mxCell id="1" parent="0" />
        <mxCell id="6Rp8pQRRTRucbAUjJW0k-1" value="&lt;div&gt;&lt;font style=&quot;font-size: 18px;&quot;&gt;ORM - object related model&lt;/font&gt;&lt;/div&gt;&lt;div&gt;&lt;font size=&quot;3&quot;&gt;Модель - data base object -&amp;nbsp; классы которые мы маппим или отображаем на таблицы базы данных &lt;br&gt;&lt;/font&gt;&lt;/div&gt;&lt;div&gt;&lt;font size=&quot;3&quot;&gt;&lt;br&gt;&lt;/font&gt;&lt;/div&gt;&lt;div&gt;&lt;font size=&quot;3&quot;&gt;book&amp;nbsp; таблица БД - name поле&lt;/font&gt;&lt;/div&gt;&lt;div&gt;&lt;font size=&quot;3&quot;&gt;&lt;br&gt;&lt;/font&gt;&lt;/div&gt;&lt;div&gt;&lt;font size=&quot;3&quot;&gt;@Table(&quot;book&quot;)&lt;/font&gt;&lt;/div&gt;&lt;div&gt;&lt;font size=&quot;3&quot;&gt;public class Book{&lt;/font&gt;&lt;/div&gt;&lt;div&gt;&lt;font size=&quot;3&quot;&gt;&lt;br&gt;&lt;/font&gt;&lt;/div&gt;&lt;div&gt;&lt;font size=&quot;3&quot;&gt;@Column(&quot;name&quot;)&lt;/font&gt;&lt;/div&gt;&lt;div&gt;&lt;font size=&quot;3&quot;&gt;private String name;&lt;/font&gt;&lt;/div&gt;&lt;div&gt;&lt;font size=&quot;3&quot;&gt;} - класс DataBaseObject&lt;/font&gt;&lt;/div&gt;" style="text;html=1;align=center;verticalAlign=middle;whiteSpace=wrap;rounded=0;" parent="1" vertex="1">
          <mxGeometry x="60" y="40" width="380" height="360" as="geometry" />
        </mxCell>
        <mxCell id="6Rp8pQRRTRucbAUjJW0k-2" value="&lt;div&gt;-Модель&amp;nbsp; - отображение БД, сами объекты базы данных&lt;/div&gt;&lt;div&gt;&lt;br&gt;&lt;/div&gt;&lt;div&gt;-Репозитории - CRUD операции с БД, и другие свои операции, запросы к БД&lt;/div&gt;&lt;div&gt;&lt;br&gt;&lt;/div&gt;&lt;div&gt;-Сервисы - &quot;бизнес&quot;-логика, обработка данных&lt;/div&gt;&lt;div&gt;&lt;br&gt;&lt;/div&gt;&lt;div&gt;-Контроллеры - api для фронт-енда/клиентского приложения - UI бэкэнда&lt;/div&gt;&lt;div&gt;&lt;br&gt;&lt;/div&gt;&lt;div&gt;DTO- data transfer object - объекты обмена (объекты которые летят к нам в api) json&lt;/div&gt;" style="text;html=1;align=center;verticalAlign=middle;whiteSpace=wrap;rounded=0;" parent="1" vertex="1">
          <mxGeometry x="420" y="40" width="390" height="260" as="geometry" />
        </mxCell>
        <mxCell id="6Rp8pQRRTRucbAUjJW0k-5" value="&lt;div align=&quot;left&quot;&gt;&lt;br&gt;&lt;/div&gt;&lt;div align=&quot;left&quot;&gt;&lt;br&gt;&lt;/div&gt;&lt;div align=&quot;left&quot;&gt;&lt;div style=&quot;background-color:#1e1f22;color:#bcbec4&quot;&gt;&lt;pre style=&quot;font-family:&#39;JetBrains Mono&#39;,monospace;font-size:9,8pt;&quot;&gt;&lt;span style=&quot;color:#cf8e6d;&quot;&gt;package &lt;/span&gt;org.example.model.repository;&lt;br&gt;&lt;br&gt;&lt;span style=&quot;color:#cf8e6d;&quot;&gt;import &lt;/span&gt;org.example.model.dbo.BookSimple;&lt;br&gt;&lt;span style=&quot;color:#cf8e6d;&quot;&gt;import &lt;/span&gt;org.springframework.data.jpa.repository.JpaRepository;&lt;br&gt;&lt;span style=&quot;color:#cf8e6d;&quot;&gt;import &lt;/span&gt;org.springframework.data.jpa.repository.&lt;span style=&quot;color:#b3ae60;&quot;&gt;Query&lt;/span&gt;;&lt;br&gt;&lt;span style=&quot;color:#cf8e6d;&quot;&gt;import &lt;/span&gt;org.springframework.data.repository.query.&lt;span style=&quot;color:#b3ae60;&quot;&gt;Param&lt;/span&gt;;&lt;br&gt;&lt;br&gt;&lt;span style=&quot;color:#cf8e6d;&quot;&gt;import &lt;/span&gt;java.util.List;&lt;br&gt;&lt;span style=&quot;color: rgb(207, 142, 109);&quot;&gt;public interface &lt;/span&gt;BookSimpleRepository &lt;span style=&quot;color: rgb(207, 142, 109);&quot;&gt;extends &lt;/span&gt;JpaRepository&amp;lt;BookSimple, Integer&amp;gt; {&lt;br&gt;&lt;span style=&quot;color: rgb(122, 126, 133);&quot;&gt;//    @Query(nativeQuery = true,&lt;br&gt;&lt;/span&gt;&lt;span style=&quot;color: rgb(122, 126, 133);&quot;&gt;//            value = &quot;SELECT &quot; +&lt;br&gt;&lt;/span&gt;&lt;span style=&quot;color: rgb(122, 126, 133);&quot;&gt;//                    &quot;CAST(bvi.id AS varchar) AS id, &quot; +&lt;br&gt;&lt;/span&gt;&lt;span style=&quot;color: rgb(122, 126, 133);&quot;&gt;//                    &quot;bvi.load_date AS loadDate, &quot; +&lt;br&gt;&lt;/span&gt;&lt;span style=&quot;color: rgb(122, 126, 133);&quot;&gt;//                    &quot;bvi.date_inspection AS operationDate, &quot; +&lt;br&gt;&lt;/span&gt;&lt;span style=&quot;color: rgb(122, 126, 133);&quot;&gt;//                    &quot;bvi.user_sid AS userSid, &quot; +&lt;br&gt;&lt;/span&gt;&lt;span style=&quot;color: rgb(122, 126, 133);&quot;&gt;//                    &quot;CAST(bvi.storage_id AS varchar) AS storageId, &quot; +&lt;br&gt;&lt;/span&gt;&lt;span style=&quot;color: rgb(122, 126, 133);&quot;&gt;//                    &quot;true AS isVisualInspection &quot; +&lt;br&gt;&lt;/span&gt;&lt;span style=&quot;color: rgb(122, 126, 133);&quot;&gt;//                    &quot;FROM building_visual_inspection bvi &quot; +&lt;br&gt;&lt;/span&gt;&lt;span style=&quot;color: rgb(122, 126, 133);&quot;&gt;//                    &quot;WHERE bvi.building_id = :objectId &quot;,&lt;br&gt;&lt;/span&gt;&lt;span style=&quot;color: rgb(122, 126, 133);&quot;&gt;//            countQuery = &quot;SELECT count(*) FROM &quot; +&lt;br&gt;&lt;/span&gt;&lt;span style=&quot;color: rgb(122, 126, 133);&quot;&gt;//                    &quot;(SELECT bvi.id FROM building_visual_inspection bvi &quot; +&lt;br&gt;&lt;/span&gt;&lt;span style=&quot;color: rgb(122, 126, 133);&quot;&gt;//                    &quot;WHERE bvi.building_id = :objectId) measure&quot;)&lt;br&gt;&lt;/span&gt;&lt;span style=&quot;color: rgb(122, 126, 133);&quot;&gt;//    Page&amp;lt;BookSimple&amp;gt; getAllByObjectId(@Param(&quot;objectId&quot;) UUID objectId);&lt;br&gt;&lt;/span&gt;&lt;span style=&quot;color: rgb(122, 126, 133);&quot;&gt;&lt;br&gt;&lt;/span&gt;&lt;span style=&quot;color: rgb(122, 126, 133);&quot;&gt;&lt;br&gt;&lt;/span&gt;&lt;span style=&quot;color: rgb(122, 126, 133);&quot;&gt;    &lt;/span&gt;&lt;span style=&quot;color: rgb(179, 174, 96);&quot;&gt;@Query&lt;/span&gt;(&lt;span style=&quot;color: rgb(106, 171, 115);&quot;&gt;&quot;select c from BookSimple c where c.title like %:title%&quot;&lt;/span&gt;)&lt;br&gt;    List&amp;lt;BookSimple&amp;gt; &lt;span style=&quot;color: rgb(86, 168, 245);&quot;&gt;findByTitle&lt;/span&gt;(&lt;span style=&quot;color: rgb(179, 174, 96);&quot;&gt;@Param&lt;/span&gt;(&lt;span style=&quot;color: rgb(106, 171, 115);&quot;&gt;&quot;title&quot;&lt;/span&gt;)String title);&lt;br&gt;&lt;br&gt;    List&amp;lt;BookSimple&amp;gt; &lt;span style=&quot;color: rgb(86, 168, 245);&quot;&gt;findByTitleContains&lt;/span&gt;(String title);&lt;br&gt;    List&amp;lt;BookSimple&amp;gt; &lt;span style=&quot;color: rgb(86, 168, 245);&quot;&gt;findByAuthorNameContains&lt;/span&gt;(String authorName);&lt;br&gt;}&lt;/pre&gt;&lt;/div&gt;&lt;/div&gt;" style="text;html=1;align=left;verticalAlign=middle;whiteSpace=wrap;rounded=0;" parent="1" vertex="1">
          <mxGeometry x="80" y="360" width="560" height="370" as="geometry" />
        </mxCell>
        <mxCell id="6Rp8pQRRTRucbAUjJW0k-6" value="&lt;div align=&quot;left&quot; style=&quot;background-color: rgb(30, 31, 34); color: rgb(188, 190, 196);&quot;&gt;&lt;pre style=&quot;font-family:&#39;JetBrains Mono&#39;,monospace;font-size:9,8pt;&quot;&gt;&lt;br&gt;&lt;span style=&quot;color: rgb(179, 174, 96);&quot;&gt;@Log4j2&lt;br&gt;&lt;/span&gt;&lt;span style=&quot;color: rgb(179, 174, 96);&quot;&gt;@Service&lt;br&gt;&lt;/span&gt;&lt;span style=&quot;color: rgb(207, 142, 109);&quot;&gt;public class &lt;/span&gt;MatcherService {&lt;br&gt;    &lt;span style=&quot;color: rgb(207, 142, 109);&quot;&gt;private final &lt;/span&gt;IgiSoilRepository &lt;span style=&quot;color: rgb(199, 125, 187);&quot;&gt;igiSoilRepository&lt;/span&gt;;&lt;br&gt;    &lt;span style=&quot;color: rgb(207, 142, 109);&quot;&gt;private final &lt;/span&gt;IrgkDictSoilTypeRepository &lt;span style=&quot;color: rgb(199, 125, 187);&quot;&gt;irgkDictSoilTypeRepository&lt;/span&gt;;&lt;br&gt;&lt;br&gt;    &lt;span style=&quot;color: rgb(207, 142, 109);&quot;&gt;public &lt;/span&gt;&lt;span style=&quot;color: rgb(86, 168, 245);&quot;&gt;MatcherService&lt;/span&gt;(IgiSoilRepository igiSoilRepository, IrgkDictSoilTypeRepository irgkDictSoilTypeRepository) {&lt;br&gt;        &lt;span style=&quot;color: rgb(207, 142, 109);&quot;&gt;this&lt;/span&gt;.&lt;span style=&quot;color: rgb(199, 125, 187);&quot;&gt;igiSoilRepository &lt;/span&gt;= igiSoilRepository;&lt;br&gt;        &lt;span style=&quot;color: rgb(207, 142, 109);&quot;&gt;this&lt;/span&gt;.&lt;span style=&quot;color: rgb(199, 125, 187);&quot;&gt;irgkDictSoilTypeRepository &lt;/span&gt;= irgkDictSoilTypeRepository;&lt;br&gt;    }&lt;br&gt;&lt;br&gt;    &lt;span style=&quot;color: rgb(207, 142, 109);&quot;&gt;public &lt;/span&gt;List&amp;lt;PhrasesDistance&amp;gt; &lt;span style=&quot;color: rgb(86, 168, 245);&quot;&gt;matchNames&lt;/span&gt;() {&lt;br&gt;        List&amp;lt;Soil&amp;gt; soils = &lt;span style=&quot;color: rgb(199, 125, 187);&quot;&gt;igiSoilRepository&lt;/span&gt;.findAll();&lt;br&gt;        List&amp;lt;DictSoilType&amp;gt; soilTypes = &lt;span style=&quot;color: rgb(199, 125, 187);&quot;&gt;irgkDictSoilTypeRepository&lt;/span&gt;.findAll();&lt;br&gt;&lt;br&gt;&lt;span style=&quot;color: rgb(122, 126, 133);&quot;&gt;//        List&amp;lt;String&amp;gt; source1 = soils.stream().map(x -&amp;gt; x.getSoilFullName()).collect(Collectors.toList());&lt;br&gt;&lt;/span&gt;&lt;span style=&quot;color: rgb(122, 126, 133);&quot;&gt;//        List&amp;lt;String&amp;gt; source2 = source1.stream().map(x -&amp;gt; x + &quot;123&quot;).collect(Collectors.toList());&lt;br&gt;&lt;/span&gt;&lt;span style=&quot;color: rgb(122, 126, 133);&quot;&gt;        &lt;/span&gt;&lt;span style=&quot;color: rgb(207, 142, 109);&quot;&gt;return &lt;/span&gt;matchNames(soils.stream().map(x -&amp;gt; x.getSoilFullName()).collect(Collectors.&lt;span style=&quot;font-style:italic;&quot;&gt;toList&lt;/span&gt;()),&lt;br&gt;                soilTypes.stream().map(x -&amp;gt; x.getName()).collect(Collectors.&lt;span style=&quot;font-style:italic;&quot;&gt;toList&lt;/span&gt;()));&lt;br&gt;&lt;span style=&quot;color: rgb(122, 126, 133);&quot;&gt;//        return matchNames(source1, source2);&lt;br&gt;&lt;/span&gt;&lt;span style=&quot;color: rgb(122, 126, 133);&quot;&gt;    &lt;/span&gt;}&lt;br&gt;}&lt;/pre&gt;&lt;/div&gt;" style="text;html=1;align=left;verticalAlign=middle;whiteSpace=wrap;rounded=0;" parent="1" vertex="1">
          <mxGeometry x="150" y="780" width="690" height="340" as="geometry" />
        </mxCell>
        <mxCell id="6Rp8pQRRTRucbAUjJW0k-7" value="&lt;div align=&quot;left&quot; style=&quot;background-color: rgb(30, 31, 34); color: rgb(188, 190, 196);&quot;&gt;&lt;pre style=&quot;font-family:&#39;JetBrains Mono&#39;,monospace;font-size:9,8pt;&quot;&gt;&lt;span style=&quot;color: rgb(207, 142, 109);&quot;&gt;import &lt;/span&gt;org.example.model.dbo.BookSimple;&lt;br&gt;&lt;span style=&quot;color: rgb(207, 142, 109);&quot;&gt;import &lt;/span&gt;org.example.service.BookSimpleService;&lt;br&gt;&lt;span style=&quot;color: rgb(207, 142, 109);&quot;&gt;import &lt;/span&gt;org.springframework.web.bind.annotation.&lt;span style=&quot;color: rgb(179, 174, 96);&quot;&gt;GetMapping&lt;/span&gt;;&lt;br&gt;&lt;span style=&quot;color: rgb(207, 142, 109);&quot;&gt;import &lt;/span&gt;org.springframework.web.bind.annotation.&lt;span style=&quot;color: rgb(179, 174, 96);&quot;&gt;RequestParam&lt;/span&gt;;&lt;br&gt;&lt;span style=&quot;color: rgb(207, 142, 109);&quot;&gt;import &lt;/span&gt;org.springframework.web.bind.annotation.&lt;span style=&quot;color: rgb(179, 174, 96);&quot;&gt;RestController&lt;/span&gt;;&lt;br&gt;&lt;br&gt;&lt;span style=&quot;color: rgb(207, 142, 109);&quot;&gt;import &lt;/span&gt;java.util.List;&lt;br&gt;&lt;br&gt;&lt;span style=&quot;color: rgb(179, 174, 96);&quot;&gt;@RestController&lt;br&gt;&lt;/span&gt;&lt;span style=&quot;color: rgb(207, 142, 109);&quot;&gt;public class &lt;/span&gt;TestController {&lt;br&gt;&lt;br&gt;    &lt;span style=&quot;color: rgb(122, 126, 133);&quot;&gt;//    @Autowired&lt;br&gt;&lt;/span&gt;&lt;span style=&quot;color: rgb(122, 126, 133);&quot;&gt;    &lt;/span&gt;&lt;span style=&quot;color: rgb(207, 142, 109);&quot;&gt;private final &lt;/span&gt;BookSimpleService &lt;span style=&quot;color: rgb(199, 125, 187);&quot;&gt;bookSimpleService&lt;/span&gt;;&lt;br&gt;&lt;br&gt;    &lt;span style=&quot;color: rgb(207, 142, 109);&quot;&gt;public &lt;/span&gt;&lt;span style=&quot;color: rgb(86, 168, 245);&quot;&gt;TestController&lt;/span&gt;(BookSimpleService bookSimpleService) {&lt;br&gt;        &lt;span style=&quot;color: rgb(207, 142, 109);&quot;&gt;this&lt;/span&gt;.&lt;span style=&quot;color: rgb(199, 125, 187);&quot;&gt;bookSimpleService &lt;/span&gt;= bookSimpleService;&lt;br&gt;    }&lt;br&gt;&lt;br&gt;    &lt;span style=&quot;color: rgb(179, 174, 96);&quot;&gt;@GetMapping&lt;/span&gt;(&lt;span style=&quot;color: rgb(106, 171, 115);&quot;&gt;&quot;/test_filepath&quot;&lt;/span&gt;)&lt;br&gt;    &lt;span style=&quot;color: rgb(207, 142, 109);&quot;&gt;public &lt;/span&gt;String &lt;span style=&quot;color: rgb(86, 168, 245);&quot;&gt;getFileFromUserOrResources&lt;/span&gt;(&lt;span style=&quot;color: rgb(179, 174, 96);&quot;&gt;@RequestParam &lt;/span&gt;String path) {&lt;br&gt;        &lt;span style=&quot;color: rgb(207, 142, 109);&quot;&gt;return &lt;/span&gt;&lt;span style=&quot;color: rgb(106, 171, 115);&quot;&gt;&quot;TesstMethod1&quot; &lt;/span&gt;+ path;&lt;br&gt;    }&lt;br&gt;&lt;br&gt;    &lt;span style=&quot;color: rgb(179, 174, 96);&quot;&gt;@GetMapping&lt;/span&gt;(&lt;span style=&quot;color: rgb(106, 171, 115);&quot;&gt;&quot;/test_all_books&quot;&lt;/span&gt;)&lt;br&gt;    &lt;span style=&quot;color: rgb(207, 142, 109);&quot;&gt;public &lt;/span&gt;List&amp;lt;BookSimple&amp;gt; &lt;span style=&quot;color: rgb(86, 168, 245);&quot;&gt;getAllBooks&lt;/span&gt;() {&lt;br&gt;        &lt;span style=&quot;color: rgb(207, 142, 109);&quot;&gt;return &lt;/span&gt;&lt;span style=&quot;color: rgb(199, 125, 187);&quot;&gt;bookSimpleService&lt;/span&gt;.getAllBooks();&lt;br&gt;    }&lt;br&gt;&lt;br&gt;    &lt;span style=&quot;color: rgb(179, 174, 96);&quot;&gt;@GetMapping&lt;/span&gt;(&lt;span style=&quot;color: rgb(106, 171, 115);&quot;&gt;&quot;/test_all_books_by_title&quot;&lt;/span&gt;)&lt;br&gt;    &lt;span style=&quot;color: rgb(207, 142, 109);&quot;&gt;public &lt;/span&gt;List&amp;lt;BookSimple&amp;gt; &lt;span style=&quot;color: rgb(86, 168, 245);&quot;&gt;getAllBooksByTitle&lt;/span&gt;(&lt;span style=&quot;color: rgb(179, 174, 96);&quot;&gt;@RequestParam &lt;/span&gt;String title) {&lt;br&gt;        &lt;span style=&quot;color: rgb(207, 142, 109);&quot;&gt;return &lt;/span&gt;&lt;span style=&quot;color: rgb(199, 125, 187);&quot;&gt;bookSimpleService&lt;/span&gt;.getAllBooksByTitle(title);&lt;br&gt;    }&lt;br&gt;&lt;br&gt;    &lt;span style=&quot;color: rgb(179, 174, 96);&quot;&gt;@GetMapping&lt;/span&gt;(&lt;span style=&quot;color: rgb(106, 171, 115);&quot;&gt;&quot;/test_all_books_by_title_like&quot;&lt;/span&gt;)&lt;br&gt;    &lt;span style=&quot;color: rgb(207, 142, 109);&quot;&gt;public &lt;/span&gt;List&amp;lt;BookSimple&amp;gt; &lt;span style=&quot;color: rgb(86, 168, 245);&quot;&gt;getAllBooksByTitleLike&lt;/span&gt;(&lt;span style=&quot;color: rgb(179, 174, 96);&quot;&gt;@RequestParam &lt;/span&gt;String title) {&lt;br&gt;        &lt;span style=&quot;color: rgb(207, 142, 109);&quot;&gt;return &lt;/span&gt;&lt;span style=&quot;color: rgb(199, 125, 187);&quot;&gt;bookSimpleService&lt;/span&gt;.getAllBooksByTitleLike(title);&lt;br&gt;    }&lt;br&gt;&lt;br&gt;    &lt;span style=&quot;color: rgb(179, 174, 96);&quot;&gt;@GetMapping&lt;/span&gt;(&lt;span style=&quot;color: rgb(106, 171, 115);&quot;&gt;&quot;/test_all_books_by_author_name&quot;&lt;/span&gt;)&lt;br&gt;    &lt;span style=&quot;color: rgb(207, 142, 109);&quot;&gt;public &lt;/span&gt;List&amp;lt;BookSimple&amp;gt; &lt;span style=&quot;color: rgb(86, 168, 245);&quot;&gt;getAllBooksBAuthorName&lt;/span&gt;(&lt;span style=&quot;color: rgb(179, 174, 96);&quot;&gt;@RequestParam &lt;/span&gt;String authorName) {&lt;br&gt;        &lt;span style=&quot;color: rgb(207, 142, 109);&quot;&gt;return &lt;/span&gt;&lt;span style=&quot;color: rgb(199, 125, 187);&quot;&gt;bookSimpleService&lt;/span&gt;.getAllBooksByAuthorName(authorName);&lt;br&gt;    }&lt;br&gt;&lt;br&gt;&lt;/pre&gt;&lt;div style=&quot;background-color:#1e1f22;color:#bcbec4&quot;&gt;&lt;pre style=&quot;font-family:&#39;JetBrains Mono&#39;,monospace;font-size:9,8pt;&quot;&gt;&lt;span style=&quot;color:#b3ae60;&quot;&gt;@PostMapping&lt;/span&gt;(path = &lt;span style=&quot;color:#6aab73;&quot;&gt;&quot;/uploadDictAggressivenessIndicator&quot;&lt;/span&gt;)&lt;br&gt;&lt;span style=&quot;color:#cf8e6d;&quot;&gt;public &lt;/span&gt;ResponseEntity&amp;lt;?&amp;gt; &lt;span style=&quot;color:#56a8f5;&quot;&gt;uploadDictAggressivenessIndicator&lt;/span&gt;(&lt;span style=&quot;color:#b3ae60;&quot;&gt;@RequestBody &lt;/span&gt;List&amp;lt;DictAggressivenessIndicator&amp;gt; dictValues) {&lt;br&gt;    &lt;span style=&quot;color:#c77dbb;&quot;&gt;dictionariesService&lt;/span&gt;.saveDictionaryValues(dictValues, DictAggressivenessIndicator.&lt;span style=&quot;color:#cf8e6d;&quot;&gt;class&lt;/span&gt;);&lt;br&gt;    &lt;span style=&quot;color:#cf8e6d;&quot;&gt;return new &lt;/span&gt;ResponseEntity&amp;lt;&amp;gt;(&lt;span style=&quot;color:#6aab73;&quot;&gt;&quot;&quot;&lt;/span&gt;, HttpStatus.&lt;span style=&quot;color:#c77dbb;font-style:italic;&quot;&gt;OK&lt;/span&gt;);&lt;br&gt;}&lt;/pre&gt;&lt;/div&gt;&lt;pre style=&quot;font-family:&#39;JetBrains Mono&#39;,monospace;font-size:9,8pt;&quot;&gt;&lt;br&gt;}&lt;/pre&gt;&lt;/div&gt;" style="text;html=1;align=left;verticalAlign=middle;whiteSpace=wrap;rounded=0;" parent="1" vertex="1">
          <mxGeometry x="70" y="1000" width="540" height="890" as="geometry" />
        </mxCell>
        <mxCell id="6Rp8pQRRTRucbAUjJW0k-8" value="&lt;div align=&quot;left&quot; style=&quot;background-color:#1e1f22;color:#bcbec4&quot;&gt;&lt;pre style=&quot;font-family:&#39;JetBrains Mono&#39;,monospace;font-size:9,8pt;&quot;&gt;&lt;span style=&quot;color:#cf8e6d;&quot;&gt;package &lt;/span&gt;ru.tomsknipi.gtm.model.dto.mapSetting;&lt;br&gt;&lt;br&gt;&lt;span style=&quot;color:#cf8e6d;&quot;&gt;import &lt;/span&gt;com.fasterxml.jackson.annotation.&lt;span style=&quot;color:#b3ae60;&quot;&gt;JsonProperty&lt;/span&gt;;&lt;br&gt;&lt;span style=&quot;color:#cf8e6d;&quot;&gt;import &lt;/span&gt;com.google.common.base.Strings;&lt;br&gt;&lt;span style=&quot;color:#cf8e6d;&quot;&gt;import &lt;/span&gt;lombok.AccessLevel;&lt;br&gt;&lt;span style=&quot;color:#cf8e6d;&quot;&gt;import &lt;/span&gt;lombok.&lt;span style=&quot;color:#b3ae60;&quot;&gt;Getter&lt;/span&gt;;&lt;br&gt;&lt;span style=&quot;color:#cf8e6d;&quot;&gt;import &lt;/span&gt;lombok.&lt;span style=&quot;color:#b3ae60;&quot;&gt;NoArgsConstructor&lt;/span&gt;;&lt;br&gt;&lt;span style=&quot;color:#cf8e6d;&quot;&gt;import &lt;/span&gt;lombok.&lt;span style=&quot;color:#b3ae60;&quot;&gt;Setter&lt;/span&gt;;&lt;br&gt;&lt;span style=&quot;color:#cf8e6d;&quot;&gt;import &lt;/span&gt;ru.tomsknipi.gtm.model.dbo.Layer;&lt;br&gt;&lt;br&gt;&lt;span style=&quot;color:#cf8e6d;&quot;&gt;import &lt;/span&gt;java.util.UUID;&lt;br&gt;&lt;br&gt;&lt;span style=&quot;color:#b3ae60;&quot;&gt;@Getter&lt;br&gt;&lt;/span&gt;&lt;span style=&quot;color:#b3ae60;&quot;&gt;@NoArgsConstructor&lt;br&gt;&lt;/span&gt;&lt;span style=&quot;color:#cf8e6d;&quot;&gt;public class &lt;/span&gt;LayerDto {&lt;br&gt;&lt;br&gt;    &lt;span style=&quot;color:#b3ae60;&quot;&gt;@JsonProperty&lt;br&gt;&lt;/span&gt;&lt;span style=&quot;color:#b3ae60;&quot;&gt;    @Setter&lt;/span&gt;(AccessLevel.&lt;span style=&quot;color:#c77dbb;font-style:italic;&quot;&gt;PROTECTED&lt;/span&gt;)&lt;br&gt;    &lt;span style=&quot;color:#cf8e6d;&quot;&gt;protected &lt;/span&gt;UUID &lt;span style=&quot;color:#c77dbb;&quot;&gt;id&lt;/span&gt;; &lt;span style=&quot;color:#7a7e85;&quot;&gt;// &lt;/span&gt;&lt;span style=&quot;color:#8bb33d;font-style:italic;&quot;&gt;todo нужен для редактирования существующего&lt;br&gt;&lt;/span&gt;&lt;span style=&quot;color:#8bb33d;font-style:italic;&quot;&gt;&lt;br&gt;&lt;/span&gt;&lt;span style=&quot;color:#8bb33d;font-style:italic;&quot;&gt;    &lt;/span&gt;&lt;span style=&quot;color:#b3ae60;&quot;&gt;@JsonProperty&lt;br&gt;&lt;/span&gt;&lt;span style=&quot;color:#b3ae60;&quot;&gt;    @Setter&lt;/span&gt;(AccessLevel.&lt;span style=&quot;color:#c77dbb;font-style:italic;&quot;&gt;PROTECTED&lt;/span&gt;)&lt;br&gt;    &lt;span style=&quot;color:#cf8e6d;&quot;&gt;protected &lt;/span&gt;String &lt;span style=&quot;color:#c77dbb;&quot;&gt;namespace&lt;/span&gt;;&lt;br&gt;&lt;br&gt;    &lt;span style=&quot;color:#b3ae60;&quot;&gt;@JsonProperty&lt;br&gt;&lt;/span&gt;&lt;span style=&quot;color:#b3ae60;&quot;&gt;    @Setter&lt;/span&gt;(AccessLevel.&lt;span style=&quot;color:#c77dbb;font-style:italic;&quot;&gt;PROTECTED&lt;/span&gt;)&lt;br&gt;    &lt;span style=&quot;color:#cf8e6d;&quot;&gt;protected &lt;/span&gt;String &lt;span style=&quot;color:#c77dbb;&quot;&gt;layerName&lt;/span&gt;;&lt;br&gt;&lt;br&gt;    &lt;span style=&quot;color:#b3ae60;&quot;&gt;@JsonProperty&lt;br&gt;&lt;/span&gt;&lt;span style=&quot;color:#b3ae60;&quot;&gt;    @Setter&lt;/span&gt;(AccessLevel.&lt;span style=&quot;color:#c77dbb;font-style:italic;&quot;&gt;PROTECTED&lt;/span&gt;)&lt;br&gt;    &lt;span style=&quot;color:#cf8e6d;&quot;&gt;protected &lt;/span&gt;String &lt;span style=&quot;color:#c77dbb;&quot;&gt;layerTitle&lt;/span&gt;;&lt;br&gt;&lt;br&gt;    &lt;span style=&quot;color:#b3ae60;&quot;&gt;@JsonProperty&lt;br&gt;&lt;/span&gt;&lt;span style=&quot;color:#b3ae60;&quot;&gt;    @Setter&lt;/span&gt;(AccessLevel.&lt;span style=&quot;color:#c77dbb;font-style:italic;&quot;&gt;PROTECTED&lt;/span&gt;)&lt;br&gt;    &lt;span style=&quot;color:#cf8e6d;&quot;&gt;protected &lt;/span&gt;Boolean &lt;span style=&quot;color:#c77dbb;&quot;&gt;isVectorLayer &lt;/span&gt;= &lt;span style=&quot;color:#cf8e6d;&quot;&gt;false&lt;/span&gt;;&lt;br&gt;    &lt;span style=&quot;color:#b3ae60;&quot;&gt;@JsonProperty&lt;br&gt;&lt;/span&gt;&lt;span style=&quot;color:#b3ae60;&quot;&gt;    @Setter&lt;/span&gt;(AccessLevel.&lt;span style=&quot;color:#c77dbb;font-style:italic;&quot;&gt;PROTECTED&lt;/span&gt;)&lt;br&gt;    &lt;span style=&quot;color:#cf8e6d;&quot;&gt;protected &lt;/span&gt;UUID &lt;span style=&quot;color:#c77dbb;&quot;&gt;categoryId&lt;/span&gt;;&lt;br&gt;&lt;br&gt;    &lt;span style=&quot;color:#b3ae60;&quot;&gt;@JsonProperty&lt;br&gt;&lt;/span&gt;&lt;span style=&quot;color:#b3ae60;&quot;&gt;    &lt;/span&gt;&lt;span style=&quot;color:#cf8e6d;&quot;&gt;protected &lt;/span&gt;Boolean &lt;span style=&quot;color:#c77dbb;&quot;&gt;isEnabled &lt;/span&gt;= &lt;span style=&quot;color:#cf8e6d;&quot;&gt;true&lt;/span&gt;;&lt;br&gt;&lt;br&gt;    &lt;span style=&quot;color:#cf8e6d;&quot;&gt;public &lt;/span&gt;String &lt;span style=&quot;color:#56a8f5;&quot;&gt;getLayerFullName&lt;/span&gt;(WorkspaceDto workspaceDto) {&lt;br&gt;        &lt;span style=&quot;color:#cf8e6d;&quot;&gt;return &lt;/span&gt;String.&lt;span style=&quot;font-style:italic;&quot;&gt;format&lt;/span&gt;(&lt;span style=&quot;color:#6aab73;&quot;&gt;&quot;%s:%s&quot;&lt;/span&gt;, workspaceDto.getNamespace(), &lt;span style=&quot;color:#c77dbb;&quot;&gt;layerName&lt;/span&gt;);&lt;br&gt;    }&lt;br&gt;&lt;br&gt;    &lt;span style=&quot;color:#cf8e6d;&quot;&gt;public &lt;/span&gt;&lt;span style=&quot;color:#56a8f5;&quot;&gt;LayerDto&lt;/span&gt;(Layer dbo) {&lt;br&gt;        &lt;span style=&quot;color:#cf8e6d;&quot;&gt;this&lt;/span&gt;.&lt;span style=&quot;color:#c77dbb;&quot;&gt;namespace &lt;/span&gt;= dbo.getWorkspace().getNamespace();&lt;br&gt;        &lt;span style=&quot;color:#cf8e6d;&quot;&gt;this&lt;/span&gt;.&lt;span style=&quot;color:#c77dbb;&quot;&gt;layerName &lt;/span&gt;= dbo.getLayerName();&lt;br&gt;        &lt;span style=&quot;color:#cf8e6d;&quot;&gt;this&lt;/span&gt;.&lt;span style=&quot;color:#c77dbb;&quot;&gt;isVectorLayer &lt;/span&gt;= dbo.getIsVectorLayer();&lt;br&gt;        &lt;span style=&quot;color:#cf8e6d;&quot;&gt;this&lt;/span&gt;.&lt;span style=&quot;color:#c77dbb;&quot;&gt;id &lt;/span&gt;= dbo.getId();&lt;br&gt;        &lt;span style=&quot;color:#cf8e6d;&quot;&gt;this&lt;/span&gt;.&lt;span style=&quot;color:#c77dbb;&quot;&gt;categoryId &lt;/span&gt;= dbo.getCategory() != &lt;span style=&quot;color:#cf8e6d;&quot;&gt;null &lt;/span&gt;? dbo.getCategory().getId() : &lt;span style=&quot;color:#cf8e6d;&quot;&gt;null&lt;/span&gt;;&lt;br&gt;        &lt;span style=&quot;color:#cf8e6d;&quot;&gt;this&lt;/span&gt;.&lt;span style=&quot;color:#c77dbb;&quot;&gt;layerTitle &lt;/span&gt;= !Strings.&lt;span style=&quot;font-style:italic;&quot;&gt;isNullOrEmpty&lt;/span&gt;(dbo.getTitle()) ? dbo.getTitle() : dbo.getCategory() != &lt;span style=&quot;color:#cf8e6d;&quot;&gt;null &lt;/span&gt;? dbo.getCategory().getName() : dbo.getLayerName();&lt;br&gt;        &lt;span style=&quot;color:#cf8e6d;&quot;&gt;this&lt;/span&gt;.&lt;span style=&quot;color:#c77dbb;&quot;&gt;isEnabled &lt;/span&gt;= dbo.getIsEnabled();&lt;br&gt;    }&lt;br&gt;}&lt;/pre&gt;&lt;/div&gt;" style="text;html=1;align=left;verticalAlign=middle;whiteSpace=wrap;rounded=0;" parent="1" vertex="1">
          <mxGeometry x="20" y="1790" width="530" height="950" as="geometry" />
        </mxCell>
      </root>
    </mxGraphModel>
  </diagram>
</mxfile>
